<svg id="Layer_1" data-name="Layer 1" xmlns="http://www.w3.org/2000/svg" viewBox="0 0 300 67"><defs><style>.cls-1{fill:#323031;}.cls-2{fill:#55dc54;}</style></defs><title>marcaArtboard 1</title><g id="_Group_" data-name="&lt;Group&gt;"><g id="_Group_2" data-name="&lt;Group&gt;"><g id="_Group_3" data-name="&lt;Group&gt;"><path id="_Compound_Path_" data-name="&lt;Compound Path&gt;" class="cls-1" d="M176.68,41.14H169l-1.4,5.74h-3.25l6.8-26.43h3.36l6.8,26.43h-3.25ZM176,38.28l-2.15-8.95c-.42-1.7-.79-3.93-.94-4.95h-.11c-.15,1-.53,3.25-.94,4.95l-2.15,8.95Z"/></g><g id="_Group_4" data-name="&lt;Group&gt;"><path id="_Compound_Path_2" data-name="&lt;Compound Path&gt;" class="cls-1" d="M184.12,39.26V28.08c0-5.21,2.94-8.12,7.36-8.12s7.32,2.79,7.59,7.89H196c-.23-3.4-1.81-5-4.57-5-2.53,0-4.23,1.66-4.23,5.21V39.26c0,3.51,1.77,5.17,4.34,5.17,2.79,0,4.34-1.62,4.64-4.95h3.06c-.3,5-3.1,7.85-7.7,7.85C187.11,47.34,184.12,44.47,184.12,39.26Z"/></g><g id="_Group_5" data-name="&lt;Group&gt;"><path id="_Compound_Path_3" data-name="&lt;Compound Path&gt;" class="cls-1" d="M213.27,41.14h-7.66l-1.4,5.74H201l6.8-26.43h3.36l6.8,26.43h-3.25Zm-.68-2.87-2.15-8.95c-.42-1.7-.79-3.93-.94-4.95h-.11c-.15,1-.53,3.25-.94,4.95l-2.15,8.95Z"/></g><g id="_Group_6" data-name="&lt;Group&gt;"><path id="_Compound_Path_4" data-name="&lt;Compound Path&gt;" class="cls-1" d="M222,20.45h6.27c5.06,0,8,2.95,8,8V38.88c0,5.06-3,8-8,8H222Zm6.31,23.49c3.1,0,4.87-1.74,4.87-5.17V28.53c0-3.4-1.74-5.14-4.87-5.14h-3.21V43.94Z"/></g><g id="_Group_7" data-name="&lt;Group&gt;"><path id="_Compound_Path_5" data-name="&lt;Compound Path&gt;" class="cls-1" d="M255,44v2.91H242V20.45h12.65v2.87h-9.55V32h8.87v2.83h-8.87V44Z"/></g><g id="_Group_8" data-name="&lt;Group&gt;"><path id="_Compound_Path_6" data-name="&lt;Compound Path&gt;" class="cls-1" d="M280,20.45V46.88h-3.06V34.76c0-2.87.11-5.44.26-8l-.15,0c-.72,2-1.7,4.46-2.64,6.95l-2.76,7.14h-3.06l-2.79-7.14c-.91-2.49-1.93-4.95-2.61-6.95l-.19,0c.15,2.57.26,5.14.26,8V46.88H260.2V20.45h3.25L268,31.52c.64,1.59,1.59,4.19,2,5.55h.15c.45-1.36,1.4-4,2-5.55l4.57-11.06Z"/></g><g id="_Group_9" data-name="&lt;Group&gt;"><path id="_Compound_Path_7" data-name="&lt;Compound Path&gt;" class="cls-1" d="M290.37,37.82l-6.49-17.37h3.25l3.36,9.48c.45,1.25,1,2.76,1.43,4.12h0c.45-1.36,1-2.91,1.43-4.19l3.36-9.4H300l-6.53,17.37v9.06h-3.1Z"/></g></g></g><g id="_Group_10" data-name="&lt;Group&gt;"><g id="_Group_11" data-name="&lt;Group&gt;"><path id="_Compound_Path_8" data-name="&lt;Compound Path&gt;" class="cls-2" d="M0,38.62V28.12c0-5.47,3-8.42,8.08-8.42C13,19.7,15.78,22.64,16,28H11.33c-.11-2.68-1.13-3.81-3.25-3.81S4.8,25.36,4.8,28.12v10.5c0,2.76,1.21,3.93,3.36,3.93s3.44-1.17,3.44-3.85V36.12H7.93V32h8.19v6.68C16,44.05,13.06,47,8.08,47S0,44.05,0,38.62Z"/></g><g id="_Group_12" data-name="&lt;Group&gt;"><path id="_Compound_Path_9" data-name="&lt;Compound Path&gt;" class="cls-2" d="M30.81,41.79H24.62l-1.06,4.8H18.73l6.49-26.43h5L36.7,46.58H31.87Zm-.94-4.42-1.06-4.91c-.38-1.81-.79-4.72-1.06-6.49h-.11c-.23,1.77-.64,4.68-1,6.49l-1.06,4.91Z"/></g><g id="_Group_13" data-name="&lt;Group&gt;"><path id="_Compound_Path_10" data-name="&lt;Compound Path&gt;" class="cls-2" d="M62.07,20.15V46.58H57.5V38.31c.11-3.1.23-6.12.38-9.1l-.19-.08c-.76,2.19-1.62,4.57-2.45,6.95l-1.77,4.68H48.86l-1.77-4.68c-.83-2.38-1.66-4.76-2.45-6.95l-.19.08c.15,3,.26,6,.38,9.1v8.27H40.29V20.15H45l4.3,10.35c.57,1.4,1.47,3.81,1.81,4.91h.15c.34-1.1,1.28-3.51,1.85-4.91l4.27-10.35Z"/></g><g id="_Group_14" data-name="&lt;Group&gt;"><path id="_Compound_Path_11" data-name="&lt;Compound Path&gt;" class="cls-2" d="M77.74,41.79H71.55l-1.06,4.8H65.66l6.49-26.43h5l6.49,26.43H78.8Zm-.94-4.42-1.06-4.91c-.38-1.81-.79-4.72-1.06-6.49h-.11c-.23,1.77-.64,4.68-1,6.49l-1.06,4.91Z"/></g></g><g id="_Group_15" data-name="&lt;Group&gt;"><g id="_Group_16" data-name="&lt;Group&gt;"><g id="_Group_17" data-name="&lt;Group&gt;"><polygon id="_Path_" data-name="&lt;Path&gt;" class="cls-2" points="114.25 38.4 108.31 38.4 108.31 25.46 114.25 24.39 114.25 38.4"/></g></g><g id="_Group_18" data-name="&lt;Group&gt;"><g id="_Group_19" data-name="&lt;Group&gt;"><polygon id="_Path_2" data-name="&lt;Path&gt;" class="cls-2" points="122.78 38.4 116.84 38.4 116.84 22.63 122.78 21.5 122.78 38.4"/></g></g><g id="_Group_20" data-name="&lt;Group&gt;"><g id="_Group_21" data-name="&lt;Group&gt;"><rect id="_Rectangle_" data-name="&lt;Rectangle&gt;" class="cls-2" x="125.36" y="20.06" width="5.94" height="18.34"/></g></g><g id="_Group_22" data-name="&lt;Group&gt;"><g id="_Group_23" data-name="&lt;Group&gt;"><polygon id="_Path_3" data-name="&lt;Path&gt;" class="cls-2" points="139.83 38.4 133.9 38.4 133.9 22.62 139.83 23.68 139.83 38.4"/></g></g><g id="_Group_24" data-name="&lt;Group&gt;"><g id="_Group_25" data-name="&lt;Group&gt;"><rect id="_Path_4" data-name="&lt;Path&gt;" class="cls-2" x="125.37" y="41" width="14.46" height="5.94"/></g></g></g><g id="_Group_26" data-name="&lt;Group&gt;"><path id="_Compound_Path_12" data-name="&lt;Compound Path&gt;" class="cls-2" d="M124.07,66.84A33.34,33.34,0,1,1,157.41,33.5,33.38,33.38,0,0,1,124.07,66.84Zm0-60.11A26.77,26.77,0,1,0,150.85,33.5,26.8,26.8,0,0,0,124.07,6.73Z"/></g></svg>